<svg xmlns="http://www.w3.org/2000/svg" width="40" height="40" viewBox="0 0 40 40"><g id="actionimage" fill="none" fill-rule="evenodd" stroke="none" stroke-width="1"><g id="icon" transform="translate(0 5)"><rect id="Rectangle" width="38" height="28" x="1" y="1" stroke="#FFF" stroke-width="2" rx="4"/><g id="This-is-the-new-Stre" fill="#FFF" fill-rule="nonzero" transform="translate(3.982 4.728)"><polygon id="Path" points=".7 4.3 .7 .6 0 .6 0 0 2 0 2 .6 1.3 .6 1.3 4.3"/><path d="M2.262,4.272 L2.262,8.8817842e-16 L2.874,8.8817842e-16 L2.874,1.524 L2.886,1.524 C2.95,1.428 3.027,1.349 3.117,1.287 C3.207,1.225 3.322,1.194 3.462,1.194 C3.538,1.194 3.614,1.207 3.69,1.233 C3.766,1.259 3.834,1.302 3.894,1.362 C3.954,1.422 4.002,1.499 4.038,1.593 C4.074,1.687 4.092,1.802 4.092,1.938 L4.092,4.272 L3.48,4.272 L3.48,2.166 C3.48,2.054 3.454,1.966 3.402,1.902 C3.35,1.838 3.276,1.806 3.18,1.806 C3.064,1.806 2.984,1.842 2.94,1.914 C2.896,1.986 2.874,2.09 2.874,2.226 L2.874,4.272 L2.262,4.272 Z"/><path id="Shape" d="M4.596,4.272 L4.596,1.23 L5.208,1.23 L5.208,4.272 L4.596,4.272 Z M4.596,0.612 L4.596,8.8817842e-16 L5.208,8.8817842e-16 L5.208,0.612 L4.596,0.612 Z"/><path d="M6.822 2.082C6.818 1.978 6.785 1.9 6.723 1.848 6.661 1.796 6.59 1.77 6.51 1.77 6.414 1.77 6.34 1.801 6.288 1.863 6.236 1.925 6.21 1.996 6.21 2.076 6.21 2.132 6.224 2.187 6.252 2.241 6.28 2.295 6.352 2.344 6.468 2.388L6.828 2.532C7.056 2.62 7.213 2.74 7.299 2.892 7.385 3.044 7.428 3.21 7.428 3.39 7.428 3.518 7.405 3.637 7.359 3.747 7.313 3.857 7.25 3.954 7.17 4.038 7.09 4.122 6.994 4.188 6.882 4.236 6.77 4.284 6.648 4.308 6.516 4.308 6.268 4.308 6.06 4.23 5.892 4.074 5.808 3.998 5.74 3.903 5.688 3.789 5.636 3.675 5.608 3.542 5.604 3.39L6.18 3.39C6.192 3.474 6.221 3.552 6.267 3.624 6.313 3.696 6.394 3.732 6.51 3.732 6.598 3.732 6.677 3.703 6.747 3.645 6.817 3.587 6.852 3.506 6.852 3.402 6.852 3.318 6.83 3.246 6.786 3.186 6.742 3.126 6.662 3.074 6.546 3.03L6.252 2.922C6.06 2.85 5.909 2.743 5.799 2.601 5.689 2.459 5.634 2.286 5.634 2.082 5.634 1.954 5.658 1.835 5.706 1.725 5.754 1.615 5.82 1.52 5.904 1.44 5.984 1.36 6.078 1.299 6.186 1.257 6.294 1.215 6.41 1.194 6.534 1.194 6.658 1.194 6.773 1.216 6.879 1.26 6.985 1.304 7.076 1.366 7.152 1.446 7.228 1.526 7.288 1.621 7.332 1.731 7.376 1.841 7.398 1.958 7.398 2.082L6.822 2.082ZM8.94 4.272 8.94 1.23 9.552 1.23 9.552 4.272 8.94 4.272ZM8.94.612 8.94 8.8817842e-16 9.552 8.8817842e-16 9.552.612 8.94.612ZM11.166 2.082C11.162 1.978 11.129 1.9 11.067 1.848 11.005 1.796 10.934 1.77 10.854 1.77 10.758 1.77 10.684 1.801 10.632 1.863 10.58 1.925 10.554 1.996 10.554 2.076 10.554 2.132 10.568 2.187 10.596 2.241 10.624 2.295 10.696 2.344 10.812 2.388L11.172 2.532C11.4 2.62 11.557 2.74 11.643 2.892 11.729 3.044 11.772 3.21 11.772 3.39 11.772 3.518 11.749 3.637 11.703 3.747 11.657 3.857 11.594 3.954 11.514 4.038 11.434 4.122 11.338 4.188 11.226 4.236 11.114 4.284 10.992 4.308 10.86 4.308 10.612 4.308 10.404 4.23 10.236 4.074 10.152 3.998 10.084 3.903 10.032 3.789 9.98 3.675 9.952 3.542 9.948 3.39L10.524 3.39C10.536 3.474 10.565 3.552 10.611 3.624 10.657 3.696 10.738 3.732 10.854 3.732 10.942 3.732 11.021 3.703 11.091 3.645 11.161 3.587 11.196 3.506 11.196 3.402 11.196 3.318 11.174 3.246 11.13 3.186 11.086 3.126 11.006 3.074 10.89 3.03L10.596 2.922C10.404 2.85 10.253 2.743 10.143 2.601 10.033 2.459 9.978 2.286 9.978 2.082 9.978 1.954 10.002 1.835 10.05 1.725 10.098 1.615 10.164 1.52 10.248 1.44 10.328 1.36 10.422 1.299 10.53 1.257 10.638 1.215 10.754 1.194 10.878 1.194 11.002 1.194 11.117 1.216 11.223 1.26 11.329 1.304 11.42 1.366 11.496 1.446 11.572 1.526 11.632 1.621 11.676 1.731 11.72 1.841 11.742 1.958 11.742 2.082L11.166 2.082ZM13.284 1.23 13.284.306 13.896.306 13.896 1.23 14.274 1.23 14.274 1.71 13.896 1.71 13.896 3.396C13.896 3.468 13.903 3.524 13.917 3.564 13.931 3.604 13.954 3.634 13.986 3.654 14.018 3.674 14.057 3.686 14.103 3.69 14.149 3.694 14.206 3.696 14.274 3.696L14.274 4.272 14.022 4.272C13.882 4.272 13.765 4.25 13.671 4.206 13.577 4.162 13.502 4.106 13.446 4.038 13.39 3.97 13.349 3.893 13.323 3.807 13.297 3.721 13.284 3.638 13.284 3.558L13.284 1.71 12.978 1.71 12.978 1.23 13.284 1.23ZM14.508 4.272 14.508 8.8817842e-16 15.12 8.8817842e-16 15.12 1.524 15.132 1.524C15.196 1.428 15.273 1.349 15.363 1.287 15.453 1.225 15.568 1.194 15.708 1.194 15.784 1.194 15.86 1.207 15.936 1.233 16.012 1.259 16.08 1.302 16.14 1.362 16.2 1.422 16.248 1.499 16.284 1.593 16.32 1.687 16.338 1.802 16.338 1.938L16.338 4.272 15.726 4.272 15.726 2.166C15.726 2.054 15.7 1.966 15.648 1.902 15.596 1.838 15.522 1.806 15.426 1.806 15.31 1.806 15.23 1.842 15.186 1.914 15.142 1.986 15.12 2.09 15.12 2.226L15.12 4.272 14.508 4.272ZM18.612 2.982 17.4 2.982 17.4 3.396C17.4 3.492 17.427 3.566 17.481 3.618 17.535 3.67 17.608 3.696 17.7 3.696 17.816 3.696 17.893 3.662 17.931 3.594 17.969 3.526 17.992 3.458 18 3.39L18.612 3.39C18.612 3.658 18.53 3.874 18.366 4.038 18.286 4.122 18.19 4.188 18.078 4.236 17.966 4.284 17.84 4.308 17.7 4.308 17.508 4.308 17.345 4.268 17.211 4.188 17.077 4.108 16.974 4.002 16.902 3.87 16.858 3.79 16.828 3.698 16.812 3.594 16.796 3.49 16.788 3.376 16.788 3.252L16.788 2.25C16.788 2.126 16.796 2.012 16.812 1.908 16.828 1.804 16.858 1.712 16.902 1.632 16.974 1.5 17.077 1.394 17.211 1.314 17.345 1.234 17.508 1.194 17.7 1.194 17.84 1.194 17.967 1.218 18.081 1.266 18.195 1.314 18.292 1.38 18.372 1.464 18.532 1.644 18.612 1.87 18.612 2.142L18.612 2.982ZM17.4 2.502 18 2.502 18 2.154C18 2.038 17.973 1.951 17.919 1.893 17.865 1.835 17.792 1.806 17.7 1.806 17.608 1.806 17.535 1.835 17.481 1.893 17.427 1.951 17.4 2.038 17.4 2.154L17.4 2.502ZM20.178 4.272 20.178 1.23 20.79 1.23 20.79 1.524 20.802 1.524C20.866 1.428 20.943 1.349 21.033 1.287 21.123 1.225 21.238 1.194 21.378 1.194 21.454 1.194 21.53 1.207 21.606 1.233 21.682 1.259 21.75 1.302 21.81 1.362 21.87 1.422 21.918 1.499 21.954 1.593 21.99 1.687 22.008 1.802 22.008 1.938L22.008 4.272 21.396 4.272 21.396 2.166C21.396 2.054 21.37 1.966 21.318 1.902 21.266 1.838 21.192 1.806 21.096 1.806 20.98 1.806 20.9 1.842 20.856 1.914 20.812 1.986 20.79 2.09 20.79 2.226L20.79 4.272 20.178 4.272ZM24.282 2.982 23.07 2.982 23.07 3.396C23.07 3.492 23.097 3.566 23.151 3.618 23.205 3.67 23.278 3.696 23.37 3.696 23.486 3.696 23.563 3.662 23.601 3.594 23.639 3.526 23.662 3.458 23.67 3.39L24.282 3.39C24.282 3.658 24.2 3.874 24.036 4.038 23.956 4.122 23.86 4.188 23.748 4.236 23.636 4.284 23.51 4.308 23.37 4.308 23.178 4.308 23.015 4.268 22.881 4.188 22.747 4.108 22.644 4.002 22.572 3.87 22.528 3.79 22.498 3.698 22.482 3.594 22.466 3.49 22.458 3.376 22.458 3.252L22.458 2.25C22.458 2.126 22.466 2.012 22.482 1.908 22.498 1.804 22.528 1.712 22.572 1.632 22.644 1.5 22.747 1.394 22.881 1.314 23.015 1.234 23.178 1.194 23.37 1.194 23.51 1.194 23.637 1.218 23.751 1.266 23.865 1.314 23.962 1.38 24.042 1.464 24.202 1.644 24.282 1.87 24.282 2.142L24.282 2.982ZM23.07 2.502 23.67 2.502 23.67 2.154C23.67 2.038 23.643 1.951 23.589 1.893 23.535 1.835 23.462 1.806 23.37 1.806 23.278 1.806 23.205 1.835 23.151 1.893 23.097 1.951 23.07 2.038 23.07 2.154L23.07 2.502Z"/><polygon points="27.7 1.2 27 4.3 26.4 4.3 26.1 2.5 26.1 2.5 25.7 4.3 25.2 4.3 24.5 1.2 25.1 1.2 25.5 3.1 25.5 3.1 25.9 1.2 26.3 1.2 26.7 3.1 26.7 3.1 27 1.2"/><path d="M2.286 6.53 1.674 6.53 1.674 6.392C1.674 6.252 1.641 6.131 1.575 6.029 1.509 5.927 1.398 5.876 1.242 5.876 1.158 5.876 1.09 5.892 1.038 5.924.986 5.956.944 5.996.912 6.044.88 6.096.858 6.155.846 6.221.834 6.287.828 6.356.828 6.428.828 6.512.831 6.582.837 6.638.843 6.694.858 6.744.882 6.788.906 6.832.941 6.87.987 6.902 1.033 6.934 1.096 6.966 1.176 6.998L1.644 7.184C1.78 7.236 1.89 7.297 1.974 7.367 2.058 7.437 2.124 7.518 2.172 7.61 2.216 7.706 2.246 7.815 2.262 7.937 2.278 8.059 2.286 8.198 2.286 8.354 2.286 8.534 2.268 8.701 2.232 8.855 2.196 9.009 2.138 9.14 2.058 9.248 1.974 9.36 1.864 9.448 1.728 9.512 1.592 9.576 1.426 9.608 1.23 9.608 1.082 9.608.944 9.582.816 9.53.688 9.478.578 9.406.486 9.314.394 9.222.321 9.115.267 8.993.213 8.871.186 8.738.186 8.594L.186 8.366.798 8.366.798 8.558C.798 8.67.831 8.771.897 8.861.963 8.951 1.074 8.996 1.23 8.996 1.334 8.996 1.415 8.981 1.473 8.951 1.531 8.921 1.576 8.878 1.608 8.822 1.64 8.766 1.659 8.699 1.665 8.621 1.671 8.543 1.674 8.456 1.674 8.36 1.674 8.248 1.67 8.156 1.662 8.084 1.654 8.012 1.638 7.954 1.614 7.91 1.586 7.866 1.549 7.83 1.503 7.802 1.457 7.774 1.396 7.744 1.32 7.712L.882 7.532C.618 7.424.441 7.281.351 7.103.261 6.925.216 6.702.216 6.434.216 6.274.238 6.122.282 5.978.326 5.834.392 5.71.48 5.606.564 5.502.671 5.419.801 5.357.931 5.295 1.086 5.264 1.266 5.264 1.418 5.264 1.557 5.292 1.683 5.348 1.809 5.404 1.918 5.478 2.01 5.57 2.194 5.762 2.286 5.982 2.286 6.23L2.286 6.53ZM2.706 6.53 2.706 5.606 3.318 5.606 3.318 6.53 3.696 6.53 3.696 7.01 3.318 7.01 3.318 8.696C3.318 8.768 3.325 8.824 3.339 8.864 3.353 8.904 3.376 8.934 3.408 8.954 3.44 8.974 3.479 8.986 3.525 8.99 3.571 8.994 3.628 8.996 3.696 8.996L3.696 9.572 3.444 9.572C3.304 9.572 3.187 9.55 3.093 9.506 2.999 9.462 2.924 9.406 2.868 9.338 2.812 9.27 2.771 9.193 2.745 9.107 2.719 9.021 2.706 8.938 2.706 8.858L2.706 7.01 2.4 7.01 2.4 6.53 2.706 6.53ZM3.93 9.572 3.93 6.53 4.542 6.53 4.542 6.854C4.666 6.742 4.788 6.654 4.908 6.59 5.028 6.526 5.176 6.494 5.352 6.494L5.352 7.142C5.292 7.118 5.23 7.106 5.166 7.106 5.102 7.106 5.033 7.117 4.959 7.139 4.885 7.161 4.818 7.198 4.758 7.25 4.694 7.302 4.642 7.37 4.602 7.454 4.562 7.538 4.542 7.642 4.542 7.766L4.542 9.572 3.93 9.572ZM7.368 8.282 6.156 8.282 6.156 8.696C6.156 8.792 6.183 8.866 6.237 8.918 6.291 8.97 6.364 8.996 6.456 8.996 6.572 8.996 6.649 8.962 6.687 8.894 6.725 8.826 6.748 8.758 6.756 8.69L7.368 8.69C7.368 8.958 7.286 9.174 7.122 9.338 7.042 9.422 6.946 9.488 6.834 9.536 6.722 9.584 6.596 9.608 6.456 9.608 6.264 9.608 6.101 9.568 5.967 9.488 5.833 9.408 5.73 9.302 5.658 9.17 5.614 9.09 5.584 8.998 5.568 8.894 5.552 8.79 5.544 8.676 5.544 8.552L5.544 7.55C5.544 7.426 5.552 7.312 5.568 7.208 5.584 7.104 5.614 7.012 5.658 6.932 5.73 6.8 5.833 6.694 5.967 6.614 6.101 6.534 6.264 6.494 6.456 6.494 6.596 6.494 6.723 6.518 6.837 6.566 6.951 6.614 7.048 6.68 7.128 6.764 7.288 6.944 7.368 7.17 7.368 7.442L7.368 8.282ZM6.156 7.802 6.756 7.802 6.756 7.454C6.756 7.338 6.729 7.251 6.675 7.193 6.621 7.135 6.548 7.106 6.456 7.106 6.364 7.106 6.291 7.135 6.237 7.193 6.183 7.251 6.156 7.338 6.156 7.454L6.156 7.802ZM8.976 9.572 8.976 9.26 8.964 9.26C8.884 9.372 8.803 9.458 8.721 9.518 8.639 9.578 8.524 9.608 8.376 9.608 8.304 9.608 8.231 9.597 8.157 9.575 8.083 9.553 8.012 9.512 7.944 9.452 7.876 9.396 7.821 9.315 7.779 9.209 7.737 9.103 7.716 8.966 7.716 8.798 7.716 8.626 7.73 8.475 7.758 8.345 7.786 8.215 7.838 8.106 7.914 8.018 7.986 7.934 8.084 7.871 8.208 7.829 8.332 7.787 8.49 7.766 8.682 7.766 8.702 7.766 8.724 7.766 8.748 7.766 8.772 7.766 8.794 7.768 8.814 7.772 8.834 7.776 8.858 7.778 8.886 7.778 8.914 7.778 8.944 7.78 8.976 7.784L8.976 7.466C8.976 7.362 8.954 7.276 8.91 7.208 8.866 7.14 8.786 7.106 8.67 7.106 8.59 7.106 8.517 7.132 8.451 7.184 8.385 7.236 8.342 7.312 8.322 7.412L7.728 7.412C7.744 7.14 7.836 6.92 8.004 6.752 8.084 6.672 8.18 6.609 8.292 6.563 8.404 6.517 8.53 6.494 8.67 6.494 8.798 6.494 8.918 6.514 9.03 6.554 9.142 6.594 9.24 6.654 9.324 6.734 9.404 6.814 9.468 6.914 9.516 7.034 9.564 7.154 9.588 7.294 9.588 7.454L9.588 9.572 8.976 9.572ZM8.976 8.264C8.908 8.252 8.852 8.246 8.808 8.246 8.676 8.246 8.563 8.277 8.469 8.339 8.375 8.401 8.328 8.514 8.328 8.678 8.328 8.794 8.356 8.888 8.412 8.96 8.468 9.032 8.546 9.068 8.646 9.068 8.75 9.068 8.831 9.034 8.889 8.966 8.947 8.898 8.976 8.802 8.976 8.678L8.976 8.264ZM10.038 9.572 10.038 6.53 10.65 6.53 10.65 6.824 10.662 6.824C10.726 6.728 10.803 6.649 10.893 6.587 10.983 6.525 11.098 6.494 11.238 6.494 11.37 6.494 11.48 6.526 11.568 6.59 11.656 6.654 11.728 6.724 11.784 6.8 11.86 6.716 11.944 6.644 12.036 6.584 12.128 6.524 12.256 6.494 12.42 6.494 12.496 6.494 12.574 6.507 12.654 6.533 12.734 6.559 12.806 6.602 12.87 6.662 12.934 6.722 12.986 6.799 13.026 6.893 13.066 6.987 13.086 7.102 13.086 7.238L13.086 9.572 12.474 9.572 12.474 7.466C12.474 7.354 12.448 7.266 12.396 7.202 12.344 7.138 12.27 7.106 12.174 7.106 12.058 7.106 11.978 7.142 11.934 7.214 11.89 7.286 11.868 7.39 11.868 7.526L11.868 9.572 11.256 9.572 11.256 7.466C11.256 7.354 11.23 7.266 11.178 7.202 11.126 7.138 11.052 7.106 10.956 7.106 10.84 7.106 10.76 7.142 10.716 7.214 10.672 7.286 10.65 7.39 10.65 7.526L10.65 9.572 10.038 9.572ZM14.742 9.572 14.742 5.3 15.648 5.3C16 5.3 16.267 5.396 16.449 5.588 16.631 5.78 16.722 6.052 16.722 6.404L16.722 8.402C16.722 8.802 16.625 9.097 16.431 9.287 16.237 9.477 15.958 9.572 15.594 9.572L14.742 9.572ZM15.354 5.876 15.354 8.996 15.636 8.996C15.808 8.996 15.93 8.953 16.002 8.867 16.074 8.781 16.11 8.646 16.11 8.462L16.11 6.404C16.11 6.236 16.076 6.106 16.008 6.014 15.94 5.922 15.816 5.876 15.636 5.876L15.354 5.876ZM19.032 8.282 17.82 8.282 17.82 8.696C17.82 8.792 17.847 8.866 17.901 8.918 17.955 8.97 18.028 8.996 18.12 8.996 18.236 8.996 18.313 8.962 18.351 8.894 18.389 8.826 18.412 8.758 18.42 8.69L19.032 8.69C19.032 8.958 18.95 9.174 18.786 9.338 18.706 9.422 18.61 9.488 18.498 9.536 18.386 9.584 18.26 9.608 18.12 9.608 17.928 9.608 17.765 9.568 17.631 9.488 17.497 9.408 17.394 9.302 17.322 9.17 17.278 9.09 17.248 8.998 17.232 8.894 17.216 8.79 17.208 8.676 17.208 8.552L17.208 7.55C17.208 7.426 17.216 7.312 17.232 7.208 17.248 7.104 17.278 7.012 17.322 6.932 17.394 6.8 17.497 6.694 17.631 6.614 17.765 6.534 17.928 6.494 18.12 6.494 18.26 6.494 18.387 6.518 18.501 6.566 18.615 6.614 18.712 6.68 18.792 6.764 18.952 6.944 19.032 7.17 19.032 7.442L19.032 8.282ZM17.82 7.802 18.42 7.802 18.42 7.454C18.42 7.338 18.393 7.251 18.339 7.193 18.285 7.135 18.212 7.106 18.12 7.106 18.028 7.106 17.955 7.135 17.901 7.193 17.847 7.251 17.82 7.338 17.82 7.454L17.82 7.802ZM20.13 8.696C20.13 8.792 20.157 8.866 20.211 8.918 20.265 8.97 20.338 8.996 20.43 8.996 20.546 8.996 20.623 8.962 20.661 8.894 20.699 8.826 20.722 8.758 20.73 8.69L21.342 8.69C21.342 8.958 21.26 9.174 21.096 9.338 21.016 9.422 20.92 9.488 20.808 9.536 20.696 9.584 20.57 9.608 20.43 9.608 20.238 9.608 20.075 9.568 19.941 9.488 19.807 9.408 19.704 9.302 19.632 9.17 19.588 9.09 19.558 8.998 19.542 8.894 19.526 8.79 19.518 8.676 19.518 8.552L19.518 7.55C19.518 7.426 19.526 7.312 19.542 7.208 19.558 7.104 19.588 7.012 19.632 6.932 19.704 6.8 19.807 6.694 19.941 6.614 20.075 6.534 20.238 6.494 20.43 6.494 20.57 6.494 20.697 6.518 20.811 6.566 20.925 6.614 21.022 6.68 21.102 6.764 21.262 6.944 21.342 7.178 21.342 7.466L20.73 7.466C20.73 7.342 20.703 7.251 20.649 7.193 20.595 7.135 20.522 7.106 20.43 7.106 20.338 7.106 20.265 7.135 20.211 7.193 20.157 7.251 20.13 7.338 20.13 7.454L20.13 8.696Z"/><polygon points="21.7 9.6 21.7 5.3 22.3 5.3 22.3 7.9 22.3 7.9 23.1 6.5 23.7 6.5 22.9 7.8 23.8 9.6 23.2 9.6 22.6 8.3 22.3 8.7 22.3 9.6"/><polygon points="3.2 11.8 2.5 14.9 2 14.9 1.6 13.1 1.6 13.1 1.3 14.9 .7 14.9 0 11.8 .7 11.8 1 13.7 1.1 13.7 1.4 11.8 1.9 11.8 2.2 13.7 2.2 13.7 2.6 11.8"/><path d="M3.486 14.872 3.486 11.83 4.098 11.83 4.098 14.872 3.486 14.872ZM3.486 11.212 3.486 10.6 4.098 10.6 4.098 11.212 3.486 11.212ZM4.602 11.83 4.602 10.906 5.214 10.906 5.214 11.83 5.592 11.83 5.592 12.31 5.214 12.31 5.214 13.996C5.214 14.068 5.221 14.124 5.235 14.164 5.249 14.204 5.272 14.234 5.304 14.254 5.336 14.274 5.375 14.286 5.421 14.29 5.467 14.294 5.524 14.296 5.592 14.296L5.592 14.872 5.34 14.872C5.2 14.872 5.083 14.85 4.989 14.806 4.895 14.762 4.82 14.706 4.764 14.638 4.708 14.57 4.667 14.493 4.641 14.407 4.615 14.321 4.602 14.238 4.602 14.158L4.602 12.31 4.296 12.31 4.296 11.83 4.602 11.83ZM5.826 14.872 5.826 10.6 6.438 10.6 6.438 12.124 6.45 12.124C6.514 12.028 6.591 11.949 6.681 11.887 6.771 11.825 6.886 11.794 7.026 11.794 7.102 11.794 7.178 11.807 7.254 11.833 7.33 11.859 7.398 11.902 7.458 11.962 7.518 12.022 7.566 12.099 7.602 12.193 7.638 12.287 7.656 12.402 7.656 12.538L7.656 14.872 7.044 14.872 7.044 12.766C7.044 12.654 7.018 12.566 6.966 12.502 6.914 12.438 6.84 12.406 6.744 12.406 6.628 12.406 6.548 12.442 6.504 12.514 6.46 12.586 6.438 12.69 6.438 12.826L6.438 14.872 5.826 14.872ZM9.312 14.872 9.312 10.6 10.218 10.6C10.57 10.6 10.837 10.696 11.019 10.888 11.201 11.08 11.292 11.352 11.292 11.704L11.292 13.702C11.292 14.102 11.195 14.397 11.001 14.587 10.807 14.777 10.528 14.872 10.164 14.872L9.312 14.872ZM9.924 11.176 9.924 14.296 10.206 14.296C10.378 14.296 10.5 14.253 10.572 14.167 10.644 14.081 10.68 13.946 10.68 13.762L10.68 11.704C10.68 11.536 10.646 11.406 10.578 11.314 10.51 11.222 10.386 11.176 10.206 11.176L9.924 11.176ZM11.832 14.872 11.832 11.83 12.444 11.83 12.444 14.872 11.832 14.872ZM11.832 11.212 11.832 10.6 12.444 10.6 12.444 11.212 11.832 11.212ZM14.106 14.872 14.106 14.56 14.094 14.56C14.014 14.672 13.933 14.758 13.851 14.818 13.769 14.878 13.654 14.908 13.506 14.908 13.434 14.908 13.361 14.897 13.287 14.875 13.213 14.853 13.142 14.812 13.074 14.752 13.006 14.696 12.951 14.615 12.909 14.509 12.867 14.403 12.846 14.266 12.846 14.098 12.846 13.926 12.86 13.775 12.888 13.645 12.916 13.515 12.968 13.406 13.044 13.318 13.116 13.234 13.214 13.171 13.338 13.129 13.462 13.087 13.62 13.066 13.812 13.066 13.832 13.066 13.854 13.066 13.878 13.066 13.902 13.066 13.924 13.068 13.944 13.072 13.964 13.076 13.988 13.078 14.016 13.078 14.044 13.078 14.074 13.08 14.106 13.084L14.106 12.766C14.106 12.662 14.084 12.576 14.04 12.508 13.996 12.44 13.916 12.406 13.8 12.406 13.72 12.406 13.647 12.432 13.581 12.484 13.515 12.536 13.472 12.612 13.452 12.712L12.858 12.712C12.874 12.44 12.966 12.22 13.134 12.052 13.214 11.972 13.31 11.909 13.422 11.863 13.534 11.817 13.66 11.794 13.8 11.794 13.928 11.794 14.048 11.814 14.16 11.854 14.272 11.894 14.37 11.954 14.454 12.034 14.534 12.114 14.598 12.214 14.646 12.334 14.694 12.454 14.718 12.594 14.718 12.754L14.718 14.872 14.106 14.872ZM14.106 13.564C14.038 13.552 13.982 13.546 13.938 13.546 13.806 13.546 13.693 13.577 13.599 13.639 13.505 13.701 13.458 13.814 13.458 13.978 13.458 14.094 13.486 14.188 13.542 14.26 13.598 14.332 13.676 14.368 13.776 14.368 13.88 14.368 13.961 14.334 14.019 14.266 14.077 14.198 14.106 14.102 14.106 13.978L14.106 13.564ZM15.132 10.6 15.744 10.6 15.744 14.014C15.744 14.13 15.765 14.209 15.807 14.251 15.849 14.293 15.928 14.32 16.044 14.332L16.044 14.908C15.904 14.908 15.778 14.897 15.666 14.875 15.554 14.853 15.458 14.81 15.378 14.746 15.298 14.686 15.237 14.601 15.195 14.491 15.153 14.381 15.132 14.236 15.132 14.056L15.132 10.6ZM17.394 12.682C17.39 12.578 17.357 12.5 17.295 12.448 17.233 12.396 17.162 12.37 17.082 12.37 16.986 12.37 16.912 12.401 16.86 12.463 16.808 12.525 16.782 12.596 16.782 12.676 16.782 12.732 16.796 12.787 16.824 12.841 16.852 12.895 16.924 12.944 17.04 12.988L17.4 13.132C17.628 13.22 17.785 13.34 17.871 13.492 17.957 13.644 18 13.81 18 13.99 18 14.118 17.977 14.237 17.931 14.347 17.885 14.457 17.822 14.554 17.742 14.638 17.662 14.722 17.566 14.788 17.454 14.836 17.342 14.884 17.22 14.908 17.088 14.908 16.84 14.908 16.632 14.83 16.464 14.674 16.38 14.598 16.312 14.503 16.26 14.389 16.208 14.275 16.18 14.142 16.176 13.99L16.752 13.99C16.764 14.074 16.793 14.152 16.839 14.224 16.885 14.296 16.966 14.332 17.082 14.332 17.17 14.332 17.249 14.303 17.319 14.245 17.389 14.187 17.424 14.106 17.424 14.002 17.424 13.918 17.402 13.846 17.358 13.786 17.314 13.726 17.234 13.674 17.118 13.63L16.824 13.522C16.632 13.45 16.481 13.343 16.371 13.201 16.261 13.059 16.206 12.886 16.206 12.682 16.206 12.554 16.23 12.435 16.278 12.325 16.326 12.215 16.392 12.12 16.476 12.04 16.556 11.96 16.65 11.899 16.758 11.857 16.866 11.815 16.982 11.794 17.106 11.794 17.23 11.794 17.345 11.816 17.451 11.86 17.557 11.904 17.648 11.966 17.724 12.046 17.8 12.126 17.86 12.221 17.904 12.331 17.948 12.441 17.97 12.558 17.97 12.682L17.394 12.682ZM1.428 20.172 1.428 19.86 1.416 19.86C1.336 19.972 1.255 20.058 1.173 20.118 1.091 20.178.976 20.208.828 20.208.756 20.208.683 20.197.609 20.175.535 20.153.464 20.112.396 20.052.328 19.996.273 19.915.231 19.809.189 19.703.168 19.566.168 19.398.168 19.226.182 19.075.21 18.945.238 18.815.29 18.706.366 18.618.438 18.534.536 18.471.66 18.429.784 18.387.942 18.366 1.134 18.366 1.154 18.366 1.176 18.366 1.2 18.366 1.224 18.366 1.246 18.368 1.266 18.372 1.286 18.376 1.31 18.378 1.338 18.378 1.366 18.378 1.396 18.38 1.428 18.384L1.428 18.066C1.428 17.962 1.406 17.876 1.362 17.808 1.318 17.74 1.238 17.706 1.122 17.706 1.042 17.706.969 17.732.903 17.784.837 17.836.794 17.912.774 18.012L.18 18.012C.196 17.74.288 17.52.456 17.352.536 17.272.632 17.209.744 17.163.856 17.117.982 17.094 1.122 17.094 1.25 17.094 1.37 17.114 1.482 17.154 1.594 17.194 1.692 17.254 1.776 17.334 1.856 17.414 1.92 17.514 1.968 17.634 2.016 17.754 2.04 17.894 2.04 18.054L2.04 20.172 1.428 20.172ZM1.428 18.864C1.36 18.852 1.304 18.846 1.26 18.846 1.128 18.846 1.015 18.877.921 18.939.827 19.001.78 19.114.78 19.278.78 19.394.808 19.488.864 19.56.92 19.632.998 19.668 1.098 19.668 1.202 19.668 1.283 19.634 1.341 19.566 1.399 19.498 1.428 19.402 1.428 19.278L1.428 18.864ZM2.49 20.172 2.49 17.13 3.102 17.13 3.102 17.424 3.114 17.424C3.178 17.328 3.255 17.249 3.345 17.187 3.435 17.125 3.55 17.094 3.69 17.094 3.766 17.094 3.842 17.107 3.918 17.133 3.994 17.159 4.062 17.202 4.122 17.262 4.182 17.322 4.23 17.399 4.266 17.493 4.302 17.587 4.32 17.702 4.32 17.838L4.32 20.172 3.708 20.172 3.708 18.066C3.708 17.954 3.682 17.866 3.63 17.802 3.578 17.738 3.504 17.706 3.408 17.706 3.292 17.706 3.212 17.742 3.168 17.814 3.124 17.886 3.102 17.99 3.102 18.126L3.102 20.172 2.49 20.172ZM5.436 19.182C5.436 19.306 5.46 19.406 5.508 19.482 5.556 19.558 5.632 19.596 5.736 19.596 5.828 19.596 5.902 19.561 5.958 19.491 6.014 19.421 6.042 19.33 6.042 19.218L6.042 18.036C6.042 17.94 6.013 17.861 5.955 17.799 5.897 17.737 5.824 17.706 5.736 17.706 5.62 17.706 5.541 17.742 5.499 17.814 5.457 17.886 5.436 17.97 5.436 18.066L5.436 19.182ZM6.042 20.172 6.042 19.896C6.002 19.94 5.964 19.981 5.928 20.019 5.892 20.057 5.852 20.09 5.808 20.118 5.764 20.146 5.714 20.168 5.658 20.184 5.602 20.2 5.536 20.208 5.46 20.208 5.204 20.208 5.026 20.112 4.926 19.92 4.89 19.852 4.864 19.768 4.848 19.668 4.832 19.568 4.824 19.434 4.824 19.266L4.824 18.108C4.824 17.888 4.83 17.726 4.842 17.622 4.866 17.422 4.96 17.272 5.124 17.172 5.2 17.12 5.314 17.094 5.466 17.094 5.586 17.094 5.693 17.121 5.787 17.175 5.881 17.229 5.962 17.306 6.03 17.406L6.042 17.406 6.042 15.9 6.654 15.9 6.654 20.172 6.042 20.172Z"/><polygon points="8.7 20.2 8.7 16.5 8 16.5 8 15.9 10 15.9 10 16.5 9.3 16.5 9.3 20.2"/><path d="M10.212 18.15C10.212 18.026 10.22 17.912 10.236 17.808 10.252 17.704 10.282 17.612 10.326 17.532 10.398 17.4 10.501 17.294 10.635 17.214 10.769 17.134 10.932 17.094 11.124 17.094 11.316 17.094 11.479 17.134 11.613 17.214 11.747 17.294 11.85 17.4 11.922 17.532 11.966 17.612 11.996 17.704 12.012 17.808 12.028 17.912 12.036 18.026 12.036 18.15L12.036 19.152C12.036 19.276 12.028 19.39 12.012 19.494 11.996 19.598 11.966 19.69 11.922 19.77 11.85 19.902 11.747 20.008 11.613 20.088 11.479 20.168 11.316 20.208 11.124 20.208 10.932 20.208 10.769 20.168 10.635 20.088 10.501 20.008 10.398 19.902 10.326 19.77 10.282 19.69 10.252 19.598 10.236 19.494 10.22 19.39 10.212 19.276 10.212 19.152L10.212 18.15ZM10.824 19.248C10.824 19.364 10.851 19.451 10.905 19.509 10.959 19.567 11.032 19.596 11.124 19.596 11.216 19.596 11.289 19.567 11.343 19.509 11.397 19.451 11.424 19.364 11.424 19.248L11.424 18.054C11.424 17.938 11.397 17.851 11.343 17.793 11.289 17.735 11.216 17.706 11.124 17.706 11.032 17.706 10.959 17.735 10.905 17.793 10.851 17.851 10.824 17.938 10.824 18.054L10.824 19.248ZM14.316 17.13 14.316 20.172 13.704 20.172 13.704 19.878 13.692 19.878C13.628 19.974 13.551 20.053 13.461 20.115 13.371 20.177 13.256 20.208 13.116 20.208 13.04 20.208 12.964 20.195 12.888 20.169 12.812 20.143 12.744 20.1 12.684 20.04 12.624 19.98 12.576 19.903 12.54 19.809 12.504 19.715 12.486 19.6 12.486 19.464L12.486 17.13 13.098 17.13 13.098 19.236C13.098 19.348 13.124 19.436 13.176 19.5 13.228 19.564 13.302 19.596 13.398 19.596 13.514 19.596 13.594 19.56 13.638 19.488 13.682 19.416 13.704 19.312 13.704 19.176L13.704 17.13 14.316 17.13ZM15.468 19.296C15.468 19.392 15.495 19.466 15.549 19.518 15.603 19.57 15.676 19.596 15.768 19.596 15.884 19.596 15.961 19.562 15.999 19.494 16.037 19.426 16.06 19.358 16.068 19.29L16.68 19.29C16.68 19.558 16.598 19.774 16.434 19.938 16.354 20.022 16.258 20.088 16.146 20.136 16.034 20.184 15.908 20.208 15.768 20.208 15.576 20.208 15.413 20.168 15.279 20.088 15.145 20.008 15.042 19.902 14.97 19.77 14.926 19.69 14.896 19.598 14.88 19.494 14.864 19.39 14.856 19.276 14.856 19.152L14.856 18.15C14.856 18.026 14.864 17.912 14.88 17.808 14.896 17.704 14.926 17.612 14.97 17.532 15.042 17.4 15.145 17.294 15.279 17.214 15.413 17.134 15.576 17.094 15.768 17.094 15.908 17.094 16.035 17.118 16.149 17.166 16.263 17.214 16.36 17.28 16.44 17.364 16.6 17.544 16.68 17.778 16.68 18.066L16.068 18.066C16.068 17.942 16.041 17.851 15.987 17.793 15.933 17.735 15.86 17.706 15.768 17.706 15.676 17.706 15.603 17.735 15.549 17.793 15.495 17.851 15.468 17.938 15.468 18.054L15.468 19.296ZM17.04 20.172 17.04 15.9 17.652 15.9 17.652 17.424 17.664 17.424C17.728 17.328 17.805 17.249 17.895 17.187 17.985 17.125 18.1 17.094 18.24 17.094 18.316 17.094 18.392 17.107 18.468 17.133 18.544 17.159 18.612 17.202 18.672 17.262 18.732 17.322 18.78 17.399 18.816 17.493 18.852 17.587 18.87 17.702 18.87 17.838L18.87 20.172 18.258 20.172 18.258 18.066C18.258 17.954 18.232 17.866 18.18 17.802 18.128 17.738 18.054 17.706 17.958 17.706 17.842 17.706 17.762 17.742 17.718 17.814 17.674 17.886 17.652 17.99 17.652 18.126L17.652 20.172 17.04 20.172ZM19.374 21.402 19.374 17.13 19.986 17.13 19.986 17.406C20.062 17.318 20.14 17.244 20.22 17.184 20.3 17.124 20.416 17.094 20.568 17.094 20.82 17.094 20.998 17.19 21.102 17.382 21.138 17.45 21.164 17.534 21.18 17.634 21.196 17.734 21.204 17.868 21.204 18.036L21.204 19.194C21.204 19.418 21.198 19.58 21.186 19.68 21.162 19.88 21.07 20.03 20.91 20.13 20.83 20.182 20.714 20.208 20.562 20.208 20.442 20.208 20.335 20.181 20.241 20.127 20.147 20.073 20.066 19.996 19.998 19.896L19.986 19.896 19.986 21.402 19.374 21.402ZM20.592 18.12C20.592 17.996 20.568 17.896 20.52 17.82 20.472 17.744 20.396 17.706 20.292 17.706 20.2 17.706 20.126 17.741 20.07 17.811 20.014 17.881 19.986 17.972 19.986 18.084L19.986 19.266C19.986 19.362 20.015 19.441 20.073 19.503 20.131 19.565 20.204 19.596 20.292 19.596 20.408 19.596 20.487 19.56 20.529 19.488 20.571 19.416 20.592 19.332 20.592 19.236L20.592 18.12ZM22.866 20.172 22.866 19.86 22.854 19.86C22.774 19.972 22.693 20.058 22.611 20.118 22.529 20.178 22.414 20.208 22.266 20.208 22.194 20.208 22.121 20.197 22.047 20.175 21.973 20.153 21.902 20.112 21.834 20.052 21.766 19.996 21.711 19.915 21.669 19.809 21.627 19.703 21.606 19.566 21.606 19.398 21.606 19.226 21.62 19.075 21.648 18.945 21.676 18.815 21.728 18.706 21.804 18.618 21.876 18.534 21.974 18.471 22.098 18.429 22.222 18.387 22.38 18.366 22.572 18.366 22.592 18.366 22.614 18.366 22.638 18.366 22.662 18.366 22.684 18.368 22.704 18.372 22.724 18.376 22.748 18.378 22.776 18.378 22.804 18.378 22.834 18.38 22.866 18.384L22.866 18.066C22.866 17.962 22.844 17.876 22.8 17.808 22.756 17.74 22.676 17.706 22.56 17.706 22.48 17.706 22.407 17.732 22.341 17.784 22.275 17.836 22.232 17.912 22.212 18.012L21.618 18.012C21.634 17.74 21.726 17.52 21.894 17.352 21.974 17.272 22.07 17.209 22.182 17.163 22.294 17.117 22.42 17.094 22.56 17.094 22.688 17.094 22.808 17.114 22.92 17.154 23.032 17.194 23.13 17.254 23.214 17.334 23.294 17.414 23.358 17.514 23.406 17.634 23.454 17.754 23.478 17.894 23.478 18.054L23.478 20.172 22.866 20.172ZM22.866 18.864C22.798 18.852 22.742 18.846 22.698 18.846 22.566 18.846 22.453 18.877 22.359 18.939 22.265 19.001 22.218 19.114 22.218 19.278 22.218 19.394 22.246 19.488 22.302 19.56 22.358 19.632 22.436 19.668 22.536 19.668 22.64 19.668 22.721 19.634 22.779 19.566 22.837 19.498 22.866 19.402 22.866 19.278L22.866 18.864ZM23.928 20.172 23.928 17.13 24.54 17.13 24.54 17.424 24.552 17.424C24.616 17.328 24.693 17.249 24.783 17.187 24.873 17.125 24.988 17.094 25.128 17.094 25.204 17.094 25.28 17.107 25.356 17.133 25.432 17.159 25.5 17.202 25.56 17.262 25.62 17.322 25.668 17.399 25.704 17.493 25.74 17.587 25.758 17.702 25.758 17.838L25.758 20.172 25.146 20.172 25.146 18.066C25.146 17.954 25.12 17.866 25.068 17.802 25.016 17.738 24.942 17.706 24.846 17.706 24.73 17.706 24.65 17.742 24.606 17.814 24.562 17.886 24.54 17.99 24.54 18.126L24.54 20.172 23.928 20.172ZM28.032 18.882 26.82 18.882 26.82 19.296C26.82 19.392 26.847 19.466 26.901 19.518 26.955 19.57 27.028 19.596 27.12 19.596 27.236 19.596 27.313 19.562 27.351 19.494 27.389 19.426 27.412 19.358 27.42 19.29L28.032 19.29C28.032 19.558 27.95 19.774 27.786 19.938 27.706 20.022 27.61 20.088 27.498 20.136 27.386 20.184 27.26 20.208 27.12 20.208 26.928 20.208 26.765 20.168 26.631 20.088 26.497 20.008 26.394 19.902 26.322 19.77 26.278 19.69 26.248 19.598 26.232 19.494 26.216 19.39 26.208 19.276 26.208 19.152L26.208 18.15C26.208 18.026 26.216 17.912 26.232 17.808 26.248 17.704 26.278 17.612 26.322 17.532 26.394 17.4 26.497 17.294 26.631 17.214 26.765 17.134 26.928 17.094 27.12 17.094 27.26 17.094 27.387 17.118 27.501 17.166 27.615 17.214 27.712 17.28 27.792 17.364 27.952 17.544 28.032 17.77 28.032 18.042L28.032 18.882ZM26.82 18.402 27.42 18.402 27.42 18.054C27.42 17.938 27.393 17.851 27.339 17.793 27.285 17.735 27.212 17.706 27.12 17.706 27.028 17.706 26.955 17.735 26.901 17.793 26.847 17.851 26.82 17.938 26.82 18.054L26.82 18.402ZM28.446 15.9 29.058 15.9 29.058 19.314C29.058 19.43 29.079 19.509 29.121 19.551 29.163 19.593 29.242 19.62 29.358 19.632L29.358 20.208C29.218 20.208 29.092 20.197 28.98 20.175 28.868 20.153 28.772 20.11 28.692 20.046 28.612 19.986 28.551 19.901 28.509 19.791 28.467 19.681 28.446 19.536 28.446 19.356L28.446 15.9Z"/></g></g></g></svg>