<svg xmlns="http://www.w3.org/2000/svg" width="144" height="144" viewBox="0 0 144 144"><g id="image" fill="none" fill-rule="evenodd" stroke="none" stroke-width="1"><rect id="Rectangle" width="144" height="144" x="0" y="0" fill="#000" fill-opacity=".01"/><g id="icon" transform="translate(12 27)"><rect width="114" height="84" x="3" y="3" stroke="#FFF" stroke-width="6" rx="12"/><g id="This-is-the-new-Stre" fill="#FFF" fill-rule="nonzero" transform="translate(11.946 14.184)"><polygon id="Path" points="2.1 12.8 2.1 1.7 0 1.7 0 0 6.1 0 6.1 1.7 4 1.7 4 12.8"/><path d="M6.786,12.816 L6.786,3.55271368e-15 L8.622,3.55271368e-15 L8.622,4.572 L8.658,4.572 C8.85,4.284 9.081,4.047 9.351,3.861 C9.621,3.675 9.966,3.582 10.386,3.582 C10.614,3.582 10.842,3.621 11.07,3.699 C11.298,3.777 11.502,3.906 11.682,4.086 C11.862,4.266 12.006,4.497 12.114,4.779 C12.222,5.061 12.276,5.406 12.276,5.814 L12.276,12.816 L10.44,12.816 L10.44,6.498 C10.44,6.162 10.362,5.898 10.206,5.706 C10.05,5.514 9.828,5.418 9.54,5.418 C9.192,5.418 8.952,5.526 8.82,5.742 C8.688,5.958 8.622,6.27 8.622,6.678 L8.622,12.816 L6.786,12.816 Z"/><path id="Shape" d="M13.788,12.816 L13.788,3.69 L15.624,3.69 L15.624,12.816 L13.788,12.816 Z M13.788,1.836 L13.788,2.66453526e-15 L15.624,2.66453526e-15 L15.624,1.836 L13.788,1.836 Z"/><path d="M20.466 6.246C20.454 5.934 20.355 5.7 20.169 5.544 19.983 5.388 19.77 5.31 19.53 5.31 19.242 5.31 19.02 5.403 18.864 5.589 18.708 5.775 18.63 5.988 18.63 6.228 18.63 6.396 18.672 6.561 18.756 6.723 18.84 6.885 19.056 7.032 19.404 7.164L20.484 7.596C21.168 7.86 21.639 8.22 21.897 8.676 22.155 9.132 22.284 9.63 22.284 10.17 22.284 10.554 22.215 10.911 22.077 11.241 21.939 11.571 21.75 11.862 21.51 12.114 21.27 12.366 20.982 12.564 20.646 12.708 20.31 12.852 19.944 12.924 19.548 12.924 18.804 12.924 18.18 12.69 17.676 12.222 17.424 11.994 17.22 11.709 17.064 11.367 16.908 11.025 16.824 10.626 16.812 10.17L18.54 10.17C18.576 10.422 18.663 10.656 18.801 10.872 18.939 11.088 19.182 11.196 19.53 11.196 19.794 11.196 20.031 11.109 20.241 10.935 20.451 10.761 20.556 10.518 20.556 10.206 20.556 9.954 20.49 9.738 20.358 9.558 20.226 9.378 19.986 9.222 19.638 9.09L18.756 8.766C18.18 8.55 17.727 8.229 17.397 7.803 17.067 7.377 16.902 6.858 16.902 6.246 16.902 5.862 16.974 5.505 17.118 5.175 17.262 4.845 17.46 4.56 17.712 4.32 17.952 4.08 18.234 3.897 18.558 3.771 18.882 3.645 19.23 3.582 19.602 3.582 19.974 3.582 20.319 3.648 20.637 3.78 20.955 3.912 21.228 4.098 21.456 4.338 21.684 4.578 21.864 4.863 21.996 5.193 22.128 5.523 22.194 5.874 22.194 6.246L20.466 6.246ZM26.82 12.816 26.82 3.69 28.656 3.69 28.656 12.816 26.82 12.816ZM26.82 1.836 26.82 2.66453526e-15 28.656 2.66453526e-15 28.656 1.836 26.82 1.836ZM33.498 6.246C33.486 5.934 33.387 5.7 33.201 5.544 33.015 5.388 32.802 5.31 32.562 5.31 32.274 5.31 32.052 5.403 31.896 5.589 31.74 5.775 31.662 5.988 31.662 6.228 31.662 6.396 31.704 6.561 31.788 6.723 31.872 6.885 32.088 7.032 32.436 7.164L33.516 7.596C34.2 7.86 34.671 8.22 34.929 8.676 35.187 9.132 35.316 9.63 35.316 10.17 35.316 10.554 35.247 10.911 35.109 11.241 34.971 11.571 34.782 11.862 34.542 12.114 34.302 12.366 34.014 12.564 33.678 12.708 33.342 12.852 32.976 12.924 32.58 12.924 31.836 12.924 31.212 12.69 30.708 12.222 30.456 11.994 30.252 11.709 30.096 11.367 29.94 11.025 29.856 10.626 29.844 10.17L31.572 10.17C31.608 10.422 31.695 10.656 31.833 10.872 31.971 11.088 32.214 11.196 32.562 11.196 32.826 11.196 33.063 11.109 33.273 10.935 33.483 10.761 33.588 10.518 33.588 10.206 33.588 9.954 33.522 9.738 33.39 9.558 33.258 9.378 33.018 9.222 32.67 9.09L31.788 8.766C31.212 8.55 30.759 8.229 30.429 7.803 30.099 7.377 29.934 6.858 29.934 6.246 29.934 5.862 30.006 5.505 30.15 5.175 30.294 4.845 30.492 4.56 30.744 4.32 30.984 4.08 31.266 3.897 31.59 3.771 31.914 3.645 32.262 3.582 32.634 3.582 33.006 3.582 33.351 3.648 33.669 3.78 33.987 3.912 34.26 4.098 34.488 4.338 34.716 4.578 34.896 4.863 35.028 5.193 35.16 5.523 35.226 5.874 35.226 6.246L33.498 6.246ZM39.852 3.69 39.852.918 41.688.918 41.688 3.69 42.822 3.69 42.822 5.13 41.688 5.13 41.688 10.188C41.688 10.404 41.709 10.572 41.751 10.692 41.793 10.812 41.862 10.902 41.958 10.962 42.054 11.022 42.171 11.058 42.309 11.07 42.447 11.082 42.618 11.088 42.822 11.088L42.822 12.816 42.066 12.816C41.646 12.816 41.295 12.75 41.013 12.618 40.731 12.486 40.506 12.318 40.338 12.114 40.17 11.91 40.047 11.679 39.969 11.421 39.891 11.163 39.852 10.914 39.852 10.674L39.852 5.13 38.934 5.13 38.934 3.69 39.852 3.69ZM43.524 12.816 43.524 3.55271368e-15 45.36 3.55271368e-15 45.36 4.572 45.396 4.572C45.588 4.284 45.819 4.047 46.089 3.861 46.359 3.675 46.704 3.582 47.124 3.582 47.352 3.582 47.58 3.621 47.808 3.699 48.036 3.777 48.24 3.906 48.42 4.086 48.6 4.266 48.744 4.497 48.852 4.779 48.96 5.061 49.014 5.406 49.014 5.814L49.014 12.816 47.178 12.816 47.178 6.498C47.178 6.162 47.1 5.898 46.944 5.706 46.788 5.514 46.566 5.418 46.278 5.418 45.93 5.418 45.69 5.526 45.558 5.742 45.426 5.958 45.36 6.27 45.36 6.678L45.36 12.816 43.524 12.816ZM55.836 8.946 52.2 8.946 52.2 10.188C52.2 10.476 52.281 10.698 52.443 10.854 52.605 11.01 52.824 11.088 53.1 11.088 53.448 11.088 53.679 10.986 53.793 10.782 53.907 10.578 53.976 10.374 54 10.17L55.836 10.17C55.836 10.974 55.59 11.622 55.098 12.114 54.858 12.366 54.57 12.564 54.234 12.708 53.898 12.852 53.52 12.924 53.1 12.924 52.524 12.924 52.035 12.804 51.633 12.564 51.231 12.324 50.922 12.006 50.706 11.61 50.574 11.37 50.484 11.094 50.436 10.782 50.388 10.47 50.364 10.128 50.364 9.756L50.364 6.75C50.364 6.378 50.388 6.036 50.436 5.724 50.484 5.412 50.574 5.136 50.706 4.896 50.922 4.5 51.231 4.182 51.633 3.942 52.035 3.702 52.524 3.582 53.1 3.582 53.52 3.582 53.901 3.654 54.243 3.798 54.585 3.942 54.876 4.14 55.116 4.392 55.596 4.932 55.836 5.61 55.836 6.426L55.836 8.946ZM52.2 7.506 54 7.506 54 6.462C54 6.114 53.919 5.853 53.757 5.679 53.595 5.505 53.376 5.418 53.1 5.418 52.824 5.418 52.605 5.505 52.443 5.679 52.281 5.853 52.2 6.114 52.2 6.462L52.2 7.506ZM60.534 12.816 60.534 3.69 62.37 3.69 62.37 4.572 62.406 4.572C62.598 4.284 62.829 4.047 63.099 3.861 63.369 3.675 63.714 3.582 64.134 3.582 64.362 3.582 64.59 3.621 64.818 3.699 65.046 3.777 65.25 3.906 65.43 4.086 65.61 4.266 65.754 4.497 65.862 4.779 65.97 5.061 66.024 5.406 66.024 5.814L66.024 12.816 64.188 12.816 64.188 6.498C64.188 6.162 64.11 5.898 63.954 5.706 63.798 5.514 63.576 5.418 63.288 5.418 62.94 5.418 62.7 5.526 62.568 5.742 62.436 5.958 62.37 6.27 62.37 6.678L62.37 12.816 60.534 12.816ZM72.846 8.946 69.21 8.946 69.21 10.188C69.21 10.476 69.291 10.698 69.453 10.854 69.615 11.01 69.834 11.088 70.11 11.088 70.458 11.088 70.689 10.986 70.803 10.782 70.917 10.578 70.986 10.374 71.01 10.17L72.846 10.17C72.846 10.974 72.6 11.622 72.108 12.114 71.868 12.366 71.58 12.564 71.244 12.708 70.908 12.852 70.53 12.924 70.11 12.924 69.534 12.924 69.045 12.804 68.643 12.564 68.241 12.324 67.932 12.006 67.716 11.61 67.584 11.37 67.494 11.094 67.446 10.782 67.398 10.47 67.374 10.128 67.374 9.756L67.374 6.75C67.374 6.378 67.398 6.036 67.446 5.724 67.494 5.412 67.584 5.136 67.716 4.896 67.932 4.5 68.241 4.182 68.643 3.942 69.045 3.702 69.534 3.582 70.11 3.582 70.53 3.582 70.911 3.654 71.253 3.798 71.595 3.942 71.886 4.14 72.126 4.392 72.606 4.932 72.846 5.61 72.846 6.426L72.846 8.946ZM69.21 7.506 71.01 7.506 71.01 6.462C71.01 6.114 70.929 5.853 70.767 5.679 70.605 5.505 70.386 5.418 70.11 5.418 69.834 5.418 69.615 5.505 69.453 5.679 69.291 5.853 69.21 6.114 69.21 6.462L69.21 7.506Z"/><polygon points="83.1 3.7 80.9 12.8 79.3 12.8 78.3 7.4 78.2 7.4 77.2 12.8 75.6 12.8 73.5 3.7 75.4 3.7 76.5 9.4 76.6 9.4 77.6 3.7 79 3.7 80 9.4 80 9.4 81.1 3.7"/><path d="M6.858 19.59 5.022 19.59 5.022 19.176C5.022 18.756 4.923 18.393 4.725 18.087 4.527 17.781 4.194 17.628 3.726 17.628 3.474 17.628 3.27 17.676 3.114 17.772 2.958 17.868 2.832 17.988 2.736 18.132 2.64 18.288 2.574 18.465 2.538 18.663 2.502 18.861 2.484 19.068 2.484 19.284 2.484 19.536 2.493 19.746 2.511 19.914 2.529 20.082 2.574 20.232 2.646 20.364 2.718 20.496 2.823 20.61 2.961 20.706 3.099 20.802 3.288 20.898 3.528 20.994L4.932 21.552C5.34 21.708 5.67 21.891 5.922 22.101 6.174 22.311 6.372 22.554 6.516 22.83 6.648 23.118 6.738 23.445 6.786 23.811 6.834 24.177 6.858 24.594 6.858 25.062 6.858 25.602 6.804 26.103 6.696 26.565 6.588 27.027 6.414 27.42 6.174 27.744 5.922 28.08 5.592 28.344 5.184 28.536 4.776 28.728 4.278 28.824 3.69 28.824 3.246 28.824 2.832 28.746 2.448 28.59 2.064 28.434 1.734 28.218 1.458 27.942 1.182 27.666.963 27.345.801 26.979.639 26.613.558 26.214.558 25.782L.558 25.098 2.394 25.098 2.394 25.674C2.394 26.01 2.493 26.313 2.691 26.583 2.889 26.853 3.222 26.988 3.69 26.988 4.002 26.988 4.245 26.943 4.419 26.853 4.593 26.763 4.728 26.634 4.824 26.466 4.92 26.298 4.977 26.097 4.995 25.863 5.013 25.629 5.022 25.368 5.022 25.08 5.022 24.744 5.01 24.468 4.986 24.252 4.962 24.036 4.914 23.862 4.842 23.73 4.758 23.598 4.647 23.49 4.509 23.406 4.371 23.322 4.188 23.232 3.96 23.136L2.646 22.596C1.854 22.272 1.323 21.843 1.053 21.309.783 20.775.648 20.106.648 19.302.648 18.822.714 18.366.846 17.934.978 17.502 1.176 17.13 1.44 16.818 1.692 16.506 2.013 16.257 2.403 16.071 2.793 15.885 3.258 15.792 3.798 15.792 4.254 15.792 4.671 15.876 5.049 16.044 5.427 16.212 5.754 16.434 6.03 16.71 6.582 17.286 6.858 17.946 6.858 18.69L6.858 19.59ZM8.118 19.59 8.118 16.818 9.954 16.818 9.954 19.59 11.088 19.59 11.088 21.03 9.954 21.03 9.954 26.088C9.954 26.304 9.975 26.472 10.017 26.592 10.059 26.712 10.128 26.802 10.224 26.862 10.32 26.922 10.437 26.958 10.575 26.97 10.713 26.982 10.884 26.988 11.088 26.988L11.088 28.716 10.332 28.716C9.912 28.716 9.561 28.65 9.279 28.518 8.997 28.386 8.772 28.218 8.604 28.014 8.436 27.81 8.313 27.579 8.235 27.321 8.157 27.063 8.118 26.814 8.118 26.574L8.118 21.03 7.2 21.03 7.2 19.59 8.118 19.59ZM11.79 28.716 11.79 19.59 13.626 19.59 13.626 20.562C13.998 20.226 14.364 19.962 14.724 19.77 15.084 19.578 15.528 19.482 16.056 19.482L16.056 21.426C15.876 21.354 15.69 21.318 15.498 21.318 15.306 21.318 15.099 21.351 14.877 21.417 14.655 21.483 14.454 21.594 14.274 21.75 14.082 21.906 13.926 22.11 13.806 22.362 13.686 22.614 13.626 22.926 13.626 23.298L13.626 28.716 11.79 28.716ZM22.104 24.846 18.468 24.846 18.468 26.088C18.468 26.376 18.549 26.598 18.711 26.754 18.873 26.91 19.092 26.988 19.368 26.988 19.716 26.988 19.947 26.886 20.061 26.682 20.175 26.478 20.244 26.274 20.268 26.07L22.104 26.07C22.104 26.874 21.858 27.522 21.366 28.014 21.126 28.266 20.838 28.464 20.502 28.608 20.166 28.752 19.788 28.824 19.368 28.824 18.792 28.824 18.303 28.704 17.901 28.464 17.499 28.224 17.19 27.906 16.974 27.51 16.842 27.27 16.752 26.994 16.704 26.682 16.656 26.37 16.632 26.028 16.632 25.656L16.632 22.65C16.632 22.278 16.656 21.936 16.704 21.624 16.752 21.312 16.842 21.036 16.974 20.796 17.19 20.4 17.499 20.082 17.901 19.842 18.303 19.602 18.792 19.482 19.368 19.482 19.788 19.482 20.169 19.554 20.511 19.698 20.853 19.842 21.144 20.04 21.384 20.292 21.864 20.832 22.104 21.51 22.104 22.326L22.104 24.846ZM18.468 23.406 20.268 23.406 20.268 22.362C20.268 22.014 20.187 21.753 20.025 21.579 19.863 21.405 19.644 21.318 19.368 21.318 19.092 21.318 18.873 21.405 18.711 21.579 18.549 21.753 18.468 22.014 18.468 22.362L18.468 23.406ZM26.928 28.716 26.928 27.78 26.892 27.78C26.652 28.116 26.409 28.374 26.163 28.554 25.917 28.734 25.572 28.824 25.128 28.824 24.912 28.824 24.693 28.791 24.471 28.725 24.249 28.659 24.036 28.536 23.832 28.356 23.628 28.188 23.463 27.945 23.337 27.627 23.211 27.309 23.148 26.898 23.148 26.394 23.148 25.878 23.19 25.425 23.274 25.035 23.358 24.645 23.514 24.318 23.742 24.054 23.958 23.802 24.252 23.613 24.624 23.487 24.996 23.361 25.47 23.298 26.046 23.298 26.106 23.298 26.172 23.298 26.244 23.298 26.316 23.298 26.382 23.304 26.442 23.316 26.502 23.328 26.574 23.334 26.658 23.334 26.742 23.334 26.832 23.34 26.928 23.352L26.928 22.398C26.928 22.086 26.862 21.828 26.73 21.624 26.598 21.42 26.358 21.318 26.01 21.318 25.77 21.318 25.551 21.396 25.353 21.552 25.155 21.708 25.026 21.936 24.966 22.236L23.184 22.236C23.232 21.42 23.508 20.76 24.012 20.256 24.252 20.016 24.54 19.827 24.876 19.689 25.212 19.551 25.59 19.482 26.01 19.482 26.394 19.482 26.754 19.542 27.09 19.662 27.426 19.782 27.72 19.962 27.972 20.202 28.212 20.442 28.404 20.742 28.548 21.102 28.692 21.462 28.764 21.882 28.764 22.362L28.764 28.716 26.928 28.716ZM26.928 24.792C26.724 24.756 26.556 24.738 26.424 24.738 26.028 24.738 25.689 24.831 25.407 25.017 25.125 25.203 24.984 25.542 24.984 26.034 24.984 26.382 25.068 26.664 25.236 26.88 25.404 27.096 25.638 27.204 25.938 27.204 26.25 27.204 26.493 27.102 26.667 26.898 26.841 26.694 26.928 26.406 26.928 26.034L26.928 24.792ZM30.114 28.716 30.114 19.59 31.95 19.59 31.95 20.472 31.986 20.472C32.178 20.184 32.409 19.947 32.679 19.761 32.949 19.575 33.294 19.482 33.714 19.482 34.11 19.482 34.44 19.578 34.704 19.77 34.968 19.962 35.184 20.172 35.352 20.4 35.58 20.148 35.832 19.932 36.108 19.752 36.384 19.572 36.768 19.482 37.26 19.482 37.488 19.482 37.722 19.521 37.962 19.599 38.202 19.677 38.418 19.806 38.61 19.986 38.802 20.166 38.958 20.397 39.078 20.679 39.198 20.961 39.258 21.306 39.258 21.714L39.258 28.716 37.422 28.716 37.422 22.398C37.422 22.062 37.344 21.798 37.188 21.606 37.032 21.414 36.81 21.318 36.522 21.318 36.174 21.318 35.934 21.426 35.802 21.642 35.67 21.858 35.604 22.17 35.604 22.578L35.604 28.716 33.768 28.716 33.768 22.398C33.768 22.062 33.69 21.798 33.534 21.606 33.378 21.414 33.156 21.318 32.868 21.318 32.52 21.318 32.28 21.426 32.148 21.642 32.016 21.858 31.95 22.17 31.95 22.578L31.95 28.716 30.114 28.716ZM44.226 28.716 44.226 15.9 46.944 15.9C48 15.9 48.801 16.188 49.347 16.764 49.893 17.34 50.166 18.156 50.166 19.212L50.166 25.206C50.166 26.406 49.875 27.291 49.293 27.861 48.711 28.431 47.874 28.716 46.782 28.716L44.226 28.716ZM46.062 17.628 46.062 26.988 46.908 26.988C47.424 26.988 47.79 26.859 48.006 26.601 48.222 26.343 48.33 25.938 48.33 25.386L48.33 19.212C48.33 18.708 48.228 18.318 48.024 18.042 47.82 17.766 47.448 17.628 46.908 17.628L46.062 17.628ZM57.096 24.846 53.46 24.846 53.46 26.088C53.46 26.376 53.541 26.598 53.703 26.754 53.865 26.91 54.084 26.988 54.36 26.988 54.708 26.988 54.939 26.886 55.053 26.682 55.167 26.478 55.236 26.274 55.26 26.07L57.096 26.07C57.096 26.874 56.85 27.522 56.358 28.014 56.118 28.266 55.83 28.464 55.494 28.608 55.158 28.752 54.78 28.824 54.36 28.824 53.784 28.824 53.295 28.704 52.893 28.464 52.491 28.224 52.182 27.906 51.966 27.51 51.834 27.27 51.744 26.994 51.696 26.682 51.648 26.37 51.624 26.028 51.624 25.656L51.624 22.65C51.624 22.278 51.648 21.936 51.696 21.624 51.744 21.312 51.834 21.036 51.966 20.796 52.182 20.4 52.491 20.082 52.893 19.842 53.295 19.602 53.784 19.482 54.36 19.482 54.78 19.482 55.161 19.554 55.503 19.698 55.845 19.842 56.136 20.04 56.376 20.292 56.856 20.832 57.096 21.51 57.096 22.326L57.096 24.846ZM53.46 23.406 55.26 23.406 55.26 22.362C55.26 22.014 55.179 21.753 55.017 21.579 54.855 21.405 54.636 21.318 54.36 21.318 54.084 21.318 53.865 21.405 53.703 21.579 53.541 21.753 53.46 22.014 53.46 22.362L53.46 23.406ZM60.39 26.088C60.39 26.376 60.471 26.598 60.633 26.754 60.795 26.91 61.014 26.988 61.29 26.988 61.638 26.988 61.869 26.886 61.983 26.682 62.097 26.478 62.166 26.274 62.19 26.07L64.026 26.07C64.026 26.874 63.78 27.522 63.288 28.014 63.048 28.266 62.76 28.464 62.424 28.608 62.088 28.752 61.71 28.824 61.29 28.824 60.714 28.824 60.225 28.704 59.823 28.464 59.421 28.224 59.112 27.906 58.896 27.51 58.764 27.27 58.674 26.994 58.626 26.682 58.578 26.37 58.554 26.028 58.554 25.656L58.554 22.65C58.554 22.278 58.578 21.936 58.626 21.624 58.674 21.312 58.764 21.036 58.896 20.796 59.112 20.4 59.421 20.082 59.823 19.842 60.225 19.602 60.714 19.482 61.29 19.482 61.71 19.482 62.091 19.554 62.433 19.698 62.775 19.842 63.066 20.04 63.306 20.292 63.786 20.832 64.026 21.534 64.026 22.398L62.19 22.398C62.19 22.026 62.109 21.753 61.947 21.579 61.785 21.405 61.566 21.318 61.29 21.318 61.014 21.318 60.795 21.405 60.633 21.579 60.471 21.753 60.39 22.014 60.39 22.362L60.39 26.088Z"/><polygon points="65.1 28.7 65.1 15.9 66.9 15.9 66.9 23.6 67 23.6 69.2 19.6 71 19.6 68.8 23.3 71.5 28.7 69.5 28.7 67.8 24.8 66.9 26.2 66.9 28.7"/><polygon points="9.7 35.5 7.5 44.6 5.9 44.6 4.9 39.2 4.9 39.2 3.9 44.6 2.2 44.6 .1 35.5 2 35.5 3.1 41.2 3.2 41.2 4.2 35.5 5.6 35.5 6.6 41.2 6.6 41.2 7.7 35.5"/><path d="M10.458 44.616 10.458 35.49 12.294 35.49 12.294 44.616 10.458 44.616ZM10.458 33.636 10.458 31.8 12.294 31.8 12.294 33.636 10.458 33.636ZM13.806 35.49 13.806 32.718 15.642 32.718 15.642 35.49 16.776 35.49 16.776 36.93 15.642 36.93 15.642 41.988C15.642 42.204 15.663 42.372 15.705 42.492 15.747 42.612 15.816 42.702 15.912 42.762 16.008 42.822 16.125 42.858 16.263 42.87 16.401 42.882 16.572 42.888 16.776 42.888L16.776 44.616 16.02 44.616C15.6 44.616 15.249 44.55 14.967 44.418 14.685 44.286 14.46 44.118 14.292 43.914 14.124 43.71 14.001 43.479 13.923 43.221 13.845 42.963 13.806 42.714 13.806 42.474L13.806 36.93 12.888 36.93 12.888 35.49 13.806 35.49ZM17.478 44.616 17.478 31.8 19.314 31.8 19.314 36.372 19.35 36.372C19.542 36.084 19.773 35.847 20.043 35.661 20.313 35.475 20.658 35.382 21.078 35.382 21.306 35.382 21.534 35.421 21.762 35.499 21.99 35.577 22.194 35.706 22.374 35.886 22.554 36.066 22.698 36.297 22.806 36.579 22.914 36.861 22.968 37.206 22.968 37.614L22.968 44.616 21.132 44.616 21.132 38.298C21.132 37.962 21.054 37.698 20.898 37.506 20.742 37.314 20.52 37.218 20.232 37.218 19.884 37.218 19.644 37.326 19.512 37.542 19.38 37.758 19.314 38.07 19.314 38.478L19.314 44.616 17.478 44.616ZM27.936 44.616 27.936 31.8 30.654 31.8C31.71 31.8 32.511 32.088 33.057 32.664 33.603 33.24 33.876 34.056 33.876 35.112L33.876 41.106C33.876 42.306 33.585 43.191 33.003 43.761 32.421 44.331 31.584 44.616 30.492 44.616L27.936 44.616ZM29.772 33.528 29.772 42.888 30.618 42.888C31.134 42.888 31.5 42.759 31.716 42.501 31.932 42.243 32.04 41.838 32.04 41.286L32.04 35.112C32.04 34.608 31.938 34.218 31.734 33.942 31.53 33.666 31.158 33.528 30.618 33.528L29.772 33.528ZM35.496 44.616 35.496 35.49 37.332 35.49 37.332 44.616 35.496 44.616ZM35.496 33.636 35.496 31.8 37.332 31.8 37.332 33.636 35.496 33.636ZM42.318 44.616 42.318 43.68 42.282 43.68C42.042 44.016 41.799 44.274 41.553 44.454 41.307 44.634 40.962 44.724 40.518 44.724 40.302 44.724 40.083 44.691 39.861 44.625 39.639 44.559 39.426 44.436 39.222 44.256 39.018 44.088 38.853 43.845 38.727 43.527 38.601 43.209 38.538 42.798 38.538 42.294 38.538 41.778 38.58 41.325 38.664 40.935 38.748 40.545 38.904 40.218 39.132 39.954 39.348 39.702 39.642 39.513 40.014 39.387 40.386 39.261 40.86 39.198 41.436 39.198 41.496 39.198 41.562 39.198 41.634 39.198 41.706 39.198 41.772 39.204 41.832 39.216 41.892 39.228 41.964 39.234 42.048 39.234 42.132 39.234 42.222 39.24 42.318 39.252L42.318 38.298C42.318 37.986 42.252 37.728 42.12 37.524 41.988 37.32 41.748 37.218 41.4 37.218 41.16 37.218 40.941 37.296 40.743 37.452 40.545 37.608 40.416 37.836 40.356 38.136L38.574 38.136C38.622 37.32 38.898 36.66 39.402 36.156 39.642 35.916 39.93 35.727 40.266 35.589 40.602 35.451 40.98 35.382 41.4 35.382 41.784 35.382 42.144 35.442 42.48 35.562 42.816 35.682 43.11 35.862 43.362 36.102 43.602 36.342 43.794 36.642 43.938 37.002 44.082 37.362 44.154 37.782 44.154 38.262L44.154 44.616 42.318 44.616ZM42.318 40.692C42.114 40.656 41.946 40.638 41.814 40.638 41.418 40.638 41.079 40.731 40.797 40.917 40.515 41.103 40.374 41.442 40.374 41.934 40.374 42.282 40.458 42.564 40.626 42.78 40.794 42.996 41.028 43.104 41.328 43.104 41.64 43.104 41.883 43.002 42.057 42.798 42.231 42.594 42.318 42.306 42.318 41.934L42.318 40.692ZM45.396 31.8 47.232 31.8 47.232 42.042C47.232 42.39 47.295 42.627 47.421 42.753 47.547 42.879 47.784 42.96 48.132 42.996L48.132 44.724C47.712 44.724 47.334 44.691 46.998 44.625 46.662 44.559 46.374 44.43 46.134 44.238 45.894 44.058 45.711 43.803 45.585 43.473 45.459 43.143 45.396 42.708 45.396 42.168L45.396 31.8ZM52.182 38.046C52.17 37.734 52.071 37.5 51.885 37.344 51.699 37.188 51.486 37.11 51.246 37.11 50.958 37.11 50.736 37.203 50.58 37.389 50.424 37.575 50.346 37.788 50.346 38.028 50.346 38.196 50.388 38.361 50.472 38.523 50.556 38.685 50.772 38.832 51.12 38.964L52.2 39.396C52.884 39.66 53.355 40.02 53.613 40.476 53.871 40.932 54 41.43 54 41.97 54 42.354 53.931 42.711 53.793 43.041 53.655 43.371 53.466 43.662 53.226 43.914 52.986 44.166 52.698 44.364 52.362 44.508 52.026 44.652 51.66 44.724 51.264 44.724 50.52 44.724 49.896 44.49 49.392 44.022 49.14 43.794 48.936 43.509 48.78 43.167 48.624 42.825 48.54 42.426 48.528 41.97L50.256 41.97C50.292 42.222 50.379 42.456 50.517 42.672 50.655 42.888 50.898 42.996 51.246 42.996 51.51 42.996 51.747 42.909 51.957 42.735 52.167 42.561 52.272 42.318 52.272 42.006 52.272 41.754 52.206 41.538 52.074 41.358 51.942 41.178 51.702 41.022 51.354 40.89L50.472 40.566C49.896 40.35 49.443 40.029 49.113 39.603 48.783 39.177 48.618 38.658 48.618 38.046 48.618 37.662 48.69 37.305 48.834 36.975 48.978 36.645 49.176 36.36 49.428 36.12 49.668 35.88 49.95 35.697 50.274 35.571 50.598 35.445 50.946 35.382 51.318 35.382 51.69 35.382 52.035 35.448 52.353 35.58 52.671 35.712 52.944 35.898 53.172 36.138 53.4 36.378 53.58 36.663 53.712 36.993 53.844 37.323 53.91 37.674 53.91 38.046L52.182 38.046ZM4.284 60.516 4.284 59.58 4.248 59.58C4.008 59.916 3.765 60.174 3.519 60.354 3.273 60.534 2.928 60.624 2.484 60.624 2.268 60.624 2.049 60.591 1.827 60.525 1.605 60.459 1.392 60.336 1.188 60.156.984 59.988.819 59.745.693 59.427.567 59.109.504 58.698.504 58.194.504 57.678.546 57.225.63 56.835.714 56.445.87 56.118 1.098 55.854 1.314 55.602 1.608 55.413 1.98 55.287 2.352 55.161 2.826 55.098 3.402 55.098 3.462 55.098 3.528 55.098 3.6 55.098 3.672 55.098 3.738 55.104 3.798 55.116 3.858 55.128 3.93 55.134 4.014 55.134 4.098 55.134 4.188 55.14 4.284 55.152L4.284 54.198C4.284 53.886 4.218 53.628 4.086 53.424 3.954 53.22 3.714 53.118 3.366 53.118 3.126 53.118 2.907 53.196 2.709 53.352 2.511 53.508 2.382 53.736 2.322 54.036L.54 54.036C.588 53.22.864 52.56 1.368 52.056 1.608 51.816 1.896 51.627 2.232 51.489 2.568 51.351 2.946 51.282 3.366 51.282 3.75 51.282 4.11 51.342 4.446 51.462 4.782 51.582 5.076 51.762 5.328 52.002 5.568 52.242 5.76 52.542 5.904 52.902 6.048 53.262 6.12 53.682 6.12 54.162L6.12 60.516 4.284 60.516ZM4.284 56.592C4.08 56.556 3.912 56.538 3.78 56.538 3.384 56.538 3.045 56.631 2.763 56.817 2.481 57.003 2.34 57.342 2.34 57.834 2.34 58.182 2.424 58.464 2.592 58.68 2.76 58.896 2.994 59.004 3.294 59.004 3.606 59.004 3.849 58.902 4.023 58.698 4.197 58.494 4.284 58.206 4.284 57.834L4.284 56.592ZM7.47 60.516 7.47 51.39 9.306 51.39 9.306 52.272 9.342 52.272C9.534 51.984 9.765 51.747 10.035 51.561 10.305 51.375 10.65 51.282 11.07 51.282 11.298 51.282 11.526 51.321 11.754 51.399 11.982 51.477 12.186 51.606 12.366 51.786 12.546 51.966 12.69 52.197 12.798 52.479 12.906 52.761 12.96 53.106 12.96 53.514L12.96 60.516 11.124 60.516 11.124 54.198C11.124 53.862 11.046 53.598 10.89 53.406 10.734 53.214 10.512 53.118 10.224 53.118 9.876 53.118 9.636 53.226 9.504 53.442 9.372 53.658 9.306 53.97 9.306 54.378L9.306 60.516 7.47 60.516ZM16.308 57.546C16.308 57.918 16.38 58.218 16.524 58.446 16.668 58.674 16.896 58.788 17.208 58.788 17.484 58.788 17.706 58.683 17.874 58.473 18.042 58.263 18.126 57.99 18.126 57.654L18.126 54.108C18.126 53.82 18.039 53.583 17.865 53.397 17.691 53.211 17.472 53.118 17.208 53.118 16.86 53.118 16.623 53.226 16.497 53.442 16.371 53.658 16.308 53.91 16.308 54.198L16.308 57.546ZM18.126 60.516 18.126 59.688C18.006 59.82 17.892 59.943 17.784 60.057 17.676 60.171 17.556 60.27 17.424 60.354 17.292 60.438 17.142 60.504 16.974 60.552 16.806 60.6 16.608 60.624 16.38 60.624 15.612 60.624 15.078 60.336 14.778 59.76 14.67 59.556 14.592 59.304 14.544 59.004 14.496 58.704 14.472 58.302 14.472 57.798L14.472 54.324C14.472 53.664 14.49 53.178 14.526 52.866 14.598 52.266 14.88 51.816 15.372 51.516 15.6 51.36 15.942 51.282 16.398 51.282 16.758 51.282 17.079 51.363 17.361 51.525 17.643 51.687 17.886 51.918 18.09 52.218L18.126 52.218 18.126 47.7 19.962 47.7 19.962 60.516 18.126 60.516Z"/><polygon points="26.1 60.5 26.1 49.4 24 49.4 24 47.7 30.1 47.7 30.1 49.4 28 49.4 28 60.5"/><path d="M30.636 54.45C30.636 54.078 30.66 53.736 30.708 53.424 30.756 53.112 30.846 52.836 30.978 52.596 31.194 52.2 31.503 51.882 31.905 51.642 32.307 51.402 32.796 51.282 33.372 51.282 33.948 51.282 34.437 51.402 34.839 51.642 35.241 51.882 35.55 52.2 35.766 52.596 35.898 52.836 35.988 53.112 36.036 53.424 36.084 53.736 36.108 54.078 36.108 54.45L36.108 57.456C36.108 57.828 36.084 58.17 36.036 58.482 35.988 58.794 35.898 59.07 35.766 59.31 35.55 59.706 35.241 60.024 34.839 60.264 34.437 60.504 33.948 60.624 33.372 60.624 32.796 60.624 32.307 60.504 31.905 60.264 31.503 60.024 31.194 59.706 30.978 59.31 30.846 59.07 30.756 58.794 30.708 58.482 30.66 58.17 30.636 57.828 30.636 57.456L30.636 54.45ZM32.472 57.744C32.472 58.092 32.553 58.353 32.715 58.527 32.877 58.701 33.096 58.788 33.372 58.788 33.648 58.788 33.867 58.701 34.029 58.527 34.191 58.353 34.272 58.092 34.272 57.744L34.272 54.162C34.272 53.814 34.191 53.553 34.029 53.379 33.867 53.205 33.648 53.118 33.372 53.118 33.096 53.118 32.877 53.205 32.715 53.379 32.553 53.553 32.472 53.814 32.472 54.162L32.472 57.744ZM42.948 51.39 42.948 60.516 41.112 60.516 41.112 59.634 41.076 59.634C40.884 59.922 40.653 60.159 40.383 60.345 40.113 60.531 39.768 60.624 39.348 60.624 39.12 60.624 38.892 60.585 38.664 60.507 38.436 60.429 38.232 60.3 38.052 60.12 37.872 59.94 37.728 59.709 37.62 59.427 37.512 59.145 37.458 58.8 37.458 58.392L37.458 51.39 39.294 51.39 39.294 57.708C39.294 58.044 39.372 58.308 39.528 58.5 39.684 58.692 39.906 58.788 40.194 58.788 40.542 58.788 40.782 58.68 40.914 58.464 41.046 58.248 41.112 57.936 41.112 57.528L41.112 51.39 42.948 51.39ZM46.404 57.888C46.404 58.176 46.485 58.398 46.647 58.554 46.809 58.71 47.028 58.788 47.304 58.788 47.652 58.788 47.883 58.686 47.997 58.482 48.111 58.278 48.18 58.074 48.204 57.87L50.04 57.87C50.04 58.674 49.794 59.322 49.302 59.814 49.062 60.066 48.774 60.264 48.438 60.408 48.102 60.552 47.724 60.624 47.304 60.624 46.728 60.624 46.239 60.504 45.837 60.264 45.435 60.024 45.126 59.706 44.91 59.31 44.778 59.07 44.688 58.794 44.64 58.482 44.592 58.17 44.568 57.828 44.568 57.456L44.568 54.45C44.568 54.078 44.592 53.736 44.64 53.424 44.688 53.112 44.778 52.836 44.91 52.596 45.126 52.2 45.435 51.882 45.837 51.642 46.239 51.402 46.728 51.282 47.304 51.282 47.724 51.282 48.105 51.354 48.447 51.498 48.789 51.642 49.08 51.84 49.32 52.092 49.8 52.632 50.04 53.334 50.04 54.198L48.204 54.198C48.204 53.826 48.123 53.553 47.961 53.379 47.799 53.205 47.58 53.118 47.304 53.118 47.028 53.118 46.809 53.205 46.647 53.379 46.485 53.553 46.404 53.814 46.404 54.162L46.404 57.888ZM51.12 60.516 51.12 47.7 52.956 47.7 52.956 52.272 52.992 52.272C53.184 51.984 53.415 51.747 53.685 51.561 53.955 51.375 54.3 51.282 54.72 51.282 54.948 51.282 55.176 51.321 55.404 51.399 55.632 51.477 55.836 51.606 56.016 51.786 56.196 51.966 56.34 52.197 56.448 52.479 56.556 52.761 56.61 53.106 56.61 53.514L56.61 60.516 54.774 60.516 54.774 54.198C54.774 53.862 54.696 53.598 54.54 53.406 54.384 53.214 54.162 53.118 53.874 53.118 53.526 53.118 53.286 53.226 53.154 53.442 53.022 53.658 52.956 53.97 52.956 54.378L52.956 60.516 51.12 60.516ZM58.122 64.206 58.122 51.39 59.958 51.39 59.958 52.218C60.186 51.954 60.42 51.732 60.66 51.552 60.9 51.372 61.248 51.282 61.704 51.282 62.46 51.282 62.994 51.57 63.306 52.146 63.414 52.35 63.492 52.602 63.54 52.902 63.588 53.202 63.612 53.604 63.612 54.108L63.612 57.582C63.612 58.254 63.594 58.74 63.558 59.04 63.486 59.64 63.21 60.09 62.73 60.39 62.49 60.546 62.142 60.624 61.686 60.624 61.326 60.624 61.005 60.543 60.723 60.381 60.441 60.219 60.198 59.988 59.994 59.688L59.958 59.688 59.958 64.206 58.122 64.206ZM61.776 54.36C61.776 53.988 61.704 53.688 61.56 53.46 61.416 53.232 61.188 53.118 60.876 53.118 60.6 53.118 60.378 53.223 60.21 53.433 60.042 53.643 59.958 53.916 59.958 54.252L59.958 57.798C59.958 58.086 60.045 58.323 60.219 58.509 60.393 58.695 60.612 58.788 60.876 58.788 61.224 58.788 61.461 58.68 61.587 58.464 61.713 58.248 61.776 57.996 61.776 57.708L61.776 54.36ZM68.598 60.516 68.598 59.58 68.562 59.58C68.322 59.916 68.079 60.174 67.833 60.354 67.587 60.534 67.242 60.624 66.798 60.624 66.582 60.624 66.363 60.591 66.141 60.525 65.919 60.459 65.706 60.336 65.502 60.156 65.298 59.988 65.133 59.745 65.007 59.427 64.881 59.109 64.818 58.698 64.818 58.194 64.818 57.678 64.86 57.225 64.944 56.835 65.028 56.445 65.184 56.118 65.412 55.854 65.628 55.602 65.922 55.413 66.294 55.287 66.666 55.161 67.14 55.098 67.716 55.098 67.776 55.098 67.842 55.098 67.914 55.098 67.986 55.098 68.052 55.104 68.112 55.116 68.172 55.128 68.244 55.134 68.328 55.134 68.412 55.134 68.502 55.14 68.598 55.152L68.598 54.198C68.598 53.886 68.532 53.628 68.4 53.424 68.268 53.22 68.028 53.118 67.68 53.118 67.44 53.118 67.221 53.196 67.023 53.352 66.825 53.508 66.696 53.736 66.636 54.036L64.854 54.036C64.902 53.22 65.178 52.56 65.682 52.056 65.922 51.816 66.21 51.627 66.546 51.489 66.882 51.351 67.26 51.282 67.68 51.282 68.064 51.282 68.424 51.342 68.76 51.462 69.096 51.582 69.39 51.762 69.642 52.002 69.882 52.242 70.074 52.542 70.218 52.902 70.362 53.262 70.434 53.682 70.434 54.162L70.434 60.516 68.598 60.516ZM68.598 56.592C68.394 56.556 68.226 56.538 68.094 56.538 67.698 56.538 67.359 56.631 67.077 56.817 66.795 57.003 66.654 57.342 66.654 57.834 66.654 58.182 66.738 58.464 66.906 58.68 67.074 58.896 67.308 59.004 67.608 59.004 67.92 59.004 68.163 58.902 68.337 58.698 68.511 58.494 68.598 58.206 68.598 57.834L68.598 56.592ZM71.784 60.516 71.784 51.39 73.62 51.39 73.62 52.272 73.656 52.272C73.848 51.984 74.079 51.747 74.349 51.561 74.619 51.375 74.964 51.282 75.384 51.282 75.612 51.282 75.84 51.321 76.068 51.399 76.296 51.477 76.5 51.606 76.68 51.786 76.86 51.966 77.004 52.197 77.112 52.479 77.22 52.761 77.274 53.106 77.274 53.514L77.274 60.516 75.438 60.516 75.438 54.198C75.438 53.862 75.36 53.598 75.204 53.406 75.048 53.214 74.826 53.118 74.538 53.118 74.19 53.118 73.95 53.226 73.818 53.442 73.686 53.658 73.62 53.97 73.62 54.378L73.62 60.516 71.784 60.516ZM84.096 56.646 80.46 56.646 80.46 57.888C80.46 58.176 80.541 58.398 80.703 58.554 80.865 58.71 81.084 58.788 81.36 58.788 81.708 58.788 81.939 58.686 82.053 58.482 82.167 58.278 82.236 58.074 82.26 57.87L84.096 57.87C84.096 58.674 83.85 59.322 83.358 59.814 83.118 60.066 82.83 60.264 82.494 60.408 82.158 60.552 81.78 60.624 81.36 60.624 80.784 60.624 80.295 60.504 79.893 60.264 79.491 60.024 79.182 59.706 78.966 59.31 78.834 59.07 78.744 58.794 78.696 58.482 78.648 58.17 78.624 57.828 78.624 57.456L78.624 54.45C78.624 54.078 78.648 53.736 78.696 53.424 78.744 53.112 78.834 52.836 78.966 52.596 79.182 52.2 79.491 51.882 79.893 51.642 80.295 51.402 80.784 51.282 81.36 51.282 81.78 51.282 82.161 51.354 82.503 51.498 82.845 51.642 83.136 51.84 83.376 52.092 83.856 52.632 84.096 53.31 84.096 54.126L84.096 56.646ZM80.46 55.206 82.26 55.206 82.26 54.162C82.26 53.814 82.179 53.553 82.017 53.379 81.855 53.205 81.636 53.118 81.36 53.118 81.084 53.118 80.865 53.205 80.703 53.379 80.541 53.553 80.46 53.814 80.46 54.162L80.46 55.206ZM85.338 47.7 87.174 47.7 87.174 57.942C87.174 58.29 87.237 58.527 87.363 58.653 87.489 58.779 87.726 58.86 88.074 58.896L88.074 60.624C87.654 60.624 87.276 60.591 86.94 60.525 86.604 60.459 86.316 60.33 86.076 60.138 85.836 59.958 85.653 59.703 85.527 59.373 85.401 59.043 85.338 58.608 85.338 58.068L85.338 47.7Z"/></g></g></g></svg>